# xmcd
#
# Track frame offsets:
#	150
#	29250
#	48825
#	70072
#	84242
#	110342
#	128232
#	147124
#	174109
#	204501
#	226829
#	252458
#	280718
#	295896
#
# Disc length: 4223 seconds
#
# Revision: 1
# Processed by: cddbd v1.5.2PL0 Copyright (c) Steve Scherf et al.
# Submitted via: audiograbber 1.83.01
#
DISCID=b9107d0e
DTITLE=Albrecht Müller - Machtwahn (Wie eine mittelmäßige Führungselite uns zug
DTITLE=runde richtet) CD7
DYEAR=2006
DGENRE=Hörbuch
TTITLE0=082
TTITLE1=083
TTITLE2=084
TTITLE3=085
TTITLE4=086
TTITLE5=087
TTITLE6=088
TTITLE7=089
TTITLE8=090
TTITLE9=091
TTITLE10=092
TTITLE11=093
TTITLE12=094
TTITLE13=095
EXTD=
EXTT0=
EXTT1=
EXTT2=
EXTT3=
EXTT4=
EXTT5=
EXTT6=
EXTT7=
EXTT8=
EXTT9=
EXTT10=
EXTT11=
EXTT12=
EXTT13=
PLAYORDER=
